ply
format ascii 1.0
element vertex 711
property float x
property float y
property float z
element face 1417
property list uchar int vertex_indices
end_header
-1.08 5.80 0.13
-1.05 5.11 -0.13
-1.20 5.33 0.37
-0.95 5.61 -0.53
-0.60 4.90 -0.49
-0.55 5.35 -0.75
-0.25 4.98 -0.41
-0.29 5.33 -0.61
0.00 5.20 -0.19
-0.02 5.48 -0.35
0.01 5.72 0.15
0.03 5.45 0.22
-0.23 5.89 0.61
-0.03 5.52 0.74
-0.32 5.63 1.05
-0.38 5.91 0.74
0.18 5.12 0.31
0.03 4.78 -0.05
-0.25 4.58 -0.20
-0.74 4.49 -0.25
-1.24 4.74 0.06
-1.41 5.04 0.54
-0.85 5.93 0.61
-1.07 5.45 0.89
-1.39 5.15 1.14
-0.94 5.53 1.09
-1.22 5.21 1.45
-0.75 5.31 1.53
-0.65 5.60 1.12
-0.54 5.96 0.71
-0.17 5.47 1.25
0.08 5.43 0.95
0.34 5.26 0.83
0.01 5.29 1.54
0.11 5.34 1.34
0.39 5.19 1.56
0.42 5.27 1.19
1.15 5.00 1.04
1.04 4.94 0.67
0.98 4.73 0.36
0.42 4.30 -0.19
-0.48 5.74 0.29
-0.24 5.62 -0.10
-0.59 5.66 -0.16
-0.24 5.47 -0.46
-0.51 5.46 -0.64
-1.02 5.82 0.04
-0.85 5.86 0.23
0.98 4.35 0.07
0.35 3.95 -0.37
0.77 3.97 -0.25
1.11 3.78 -0.23
0.72 3.50 -0.48
0.27 3.55 -0.55
-0.23 3.90 -0.46
-0.54 4.14 -0.38
-0.97 4.08 -0.37
-0.19 3.38 -0.63
-0.88 3.70 -0.53
-0.77 3.18 -0.69
-1.22 3.19 -0.63
-1.44 3.49 -0.51
-1.35 3.86 -0.38
-1.63 3.66 -0.39
-1.77 4.14 -0.04
-1.29 4.22 -0.22
-2.04 4.40 0.36
-2.05 4.51 0.68
-1.62 4.96 0.99
-2.03 4.59 1.03
-1.97 4.65 1.35
-1.61 4.98 1.28
-1.83 4.65 1.72
-1.37 4.64 2.06
-0.81 5.09 1.78
-0.96 4.72 2.03
-0.39 4.91 1.91
0.12 5.09 1.78
0.71 5.01 1.71
1.24 4.92 1.40
1.64 4.79 1.09
1.52 4.87 0.79
1.41 4.77 0.43
1.50 4.52 0.19
1.30 4.09 -0.03
1.62 4.74 0.50
1.83 4.66 0.74
1.82 4.59 0.53
1.76 4.18 0.18
1.46 3.86 -0.02
1.15 3.49 -0.30
1.74 3.66 0.16
1.44 3.64 0.02
1.94 3.85 0.24
2.10 3.62 0.40
1.76 3.32 0.28
1.37 3.38 0.19
1.41 2.96 0.35
1.38 2.92 0.18
1.39 2.65 0.18
1.34 3.36 -0.10
1.42 2.73 0.41
1.99 3.00 0.43
2.24 3.20 0.62
1.45 2.57 0.54
1.87 2.84 0.65
1.93 2.92 0.93
2.31 3.37 0.90
2.21 3.73 0.58
2.04 4.21 0.58
2.01 4.36 0.85
1.73 4.58 1.35
1.37 4.68 1.67
1.05 4.67 1.90
2.23 3.80 0.74
2.20 3.86 0.98
2.01 3.68 1.53
2.26 3.51 1.12
1.77 4.02 1.67
1.48 4.06 1.82
1.19 4.13 2.05
0.72 4.19 2.26
1.41 2.54 1.10
1.70 2.92 1.32
1.35 2.88 1.49
2.25 3.37 1.14
2.06 3.40 1.48
1.75 3.34 1.69
1.58 3.15 1.64
1.41 3.18 1.58
1.42 3.56 1.66
1.71 3.73 1.71
1.47 3.80 1.73
1.31 3.65 1.92
1.08 3.78 2.18
0.62 3.90 2.36
0.36 4.60 2.20
0.05 4.63 2.17
-0.17 4.67 2.08
0.07 4.32 2.33
0.28 4.30 2.36
0.22 3.96 2.43
0.10 3.94 2.43
1.23 3.24 2.02
0.96 3.25 2.35
0.55 3.35 2.47
0.22 3.44 2.49
1.15 2.54 2.00
0.82 2.63 2.32
0.45 2.73 2.47
0.13 2.82 2.52
-0.38 4.33 2.16
-0.28 4.30 2.20
-0.26 3.78 2.33
-0.18 3.33 2.42
-0.13 2.79 2.47
-0.29 2.76 2.45
-0.39 3.32 2.39
-0.45 3.72 2.32
-0.51 4.30 2.17
-0.97 4.21 2.29
-0.96 3.64 2.40
-0.76 3.21 2.43
-0.63 2.55 2.51
-1.11 2.87 2.43
-0.99 2.40 2.49
-1.45 2.68 2.25
-1.32 2.27 2.34
-1.69 2.45 1.75
-1.88 2.66 1.73
-1.62 3.13 2.22
-1.27 3.63 2.40
-1.15 4.18 2.32
-1.51 4.11 2.22
-1.47 3.74 2.32
-1.96 3.12 1.86
-1.87 3.41 2.05
-1.90 3.93 2.01
-1.79 2.40 1.00
-1.37 2.06 2.11
-1.40 1.58 1.70
-1.59 1.93 0.91
-1.69 2.03 0.64
-2.13 3.14 1.46
-2.12 3.46 1.79
-2.35 3.46 1.57
-2.22 3.98 1.74
-2.38 4.20 1.44
-2.20 4.43 1.42
-2.30 4.38 1.07
-2.55 4.09 1.05
-2.50 3.90 1.42
-2.42 3.64 1.56
-2.39 4.28 0.63
-2.66 3.98 0.58
-2.71 3.64 0.92
-2.63 3.28 1.21
-2.50 3.13 1.32
-2.36 3.11 1.38
-2.21 2.87 1.28
-1.92 2.30 0.85
-2.22 2.55 1.11
-2.39 2.67 1.14
-2.55 2.73 1.05
-2.67 2.92 1.06
-2.80 3.23 0.76
-2.84 3.47 0.40
-2.62 3.70 0.03
-2.51 4.06 0.23
-2.83 2.87 0.57
-2.21 2.39 0.51
-1.91 2.12 0.58
-1.93 2.14 0.24
-2.12 2.25 0.31
-2.16 2.43 0.06
-2.32 2.64 -0.07
-2.49 2.72 0.08
-2.81 3.04 0.08
-1.96 2.38 -0.02
-1.68 2.13 0.18
-1.78 2.48 -0.10
-2.06 2.63 -0.20
-2.27 2.79 -0.22
-2.49 2.93 -0.17
-2.66 3.01 -0.07
-2.42 3.16 -0.19
-2.20 2.97 -0.22
-2.01 2.68 -0.19
-2.13 3.14 -0.19
-2.33 3.41 -0.21
-1.78 2.76 -0.16
-1.95 3.16 -0.18
-2.10 3.59 -0.23
-2.33 3.88 -0.02
-1.86 3.64 -0.30
-1.84 3.45 -0.36
-1.65 3.34 -0.47
-1.79 3.14 -0.36
-1.56 3.02 -0.50
-1.63 2.44 -0.50
-1.61 2.59 -0.55
-1.50 2.75 -0.68
-1.26 2.87 -0.80
-0.95 2.88 -0.84
-0.74 2.88 -0.82
-0.41 2.99 -0.71
-1.63 2.16 -0.15
-1.52 1.65 0.23
-1.41 1.83 -0.07
-1.39 1.95 -0.41
-1.57 2.23 -0.51
-1.26 2.12 -0.78
-1.46 2.34 -0.79
-1.48 2.43 -0.80
-1.48 2.52 -0.81
-1.43 2.59 -0.84
-1.34 2.64 -0.90
-1.16 2.59 -0.96
-0.86 2.62 -0.95
-0.67 2.70 -0.90
-0.57 2.51 -0.87
-0.16 2.62 -0.62
-0.49 2.29 -0.76
-0.19 2.25 -0.52
-0.13 3.07 -0.64
-0.01 2.12 -0.45
-0.32 2.05 -0.50
-0.68 2.06 -0.75
-0.47 1.89 -0.50
-0.74 1.74 -0.45
-1.16 1.92 -0.63
-1.00 1.71 -0.37
-1.07 2.17 -0.89
-0.83 2.28 -0.94
-1.15 2.35 -0.97
-1.31 2.28 -0.89
-1.36 2.44 -0.94
0.20 3.16 -0.63
0.05 2.65 -0.62
0.11 2.30 -0.51
0.27 2.15 -0.45
0.08 1.59 -0.43
-0.40 1.36 -0.45
-1.24 1.49 -0.05
-1.42 1.34 0.31
0.65 2.06 -0.36
0.70 2.28 -0.52
0.39 2.54 -0.65
0.32 2.84 -0.69
0.45 3.05 -0.70
0.90 3.27 -0.62
0.69 3.06 -0.74
0.63 2.87 -0.76
0.68 2.70 -0.75
0.84 2.56 -0.69
1.11 2.36 -0.32
0.93 2.10 -0.25
1.17 2.64 -0.53
1.03 2.85 -0.75
1.19 2.83 -0.64
0.95 2.91 -0.79
0.98 3.01 -0.75
1.16 3.15 -0.60
1.17 3.01 -0.70
1.14 3.34 -0.44
1.29 3.23 -0.32
1.27 3.13 -0.50
1.29 2.91 -0.55
0.56 1.30 -0.35
0.75 1.35 -0.25
0.96 1.68 -0.14
1.17 2.20 -0.05
1.23 1.90 0.09
1.30 2.32 0.07
1.29 2.50 -0.22
1.36 2.83 -0.33
1.37 3.08 -0.26
1.42 2.89 -0.04
1.44 2.03 0.40
1.06 1.39 0.00
1.25 1.42 0.19
1.44 1.51 0.53
1.50 2.08 0.64
1.49 2.10 0.93
1.45 2.12 1.17
1.14 2.07 2.01
1.14 1.82 1.96
1.45 1.63 1.19
1.49 1.55 0.81
0.13 1.17 -0.33
-0.43 1.01 -0.36
-0.69 1.19 -0.34
-0.91 1.41 -0.28
1.42 1.29 1.22
1.12 1.30 1.88
1.36 0.87 1.22
1.11 0.73 1.81
0.60 0.71 2.22
0.72 1.75 2.37
0.76 2.08 2.40
0.40 1.91 2.52
0.34 1.04 2.37
0.85 0.50 2.07
1.05 0.10 2.01
1.28 -0.16 1.86
1.39 -0.04 1.65
1.52 0.17 1.24
0.16 2.04 2.57
0.12 1.21 2.41
-0.11 2.04 2.53
-0.03 1.24 2.34
-0.24 1.23 2.37
-0.26 2.07 2.50
-0.61 1.94 2.48
-0.54 1.13 2.33
-0.76 1.07 2.40
-0.87 1.85 2.49
-1.15 1.73 2.27
-1.11 0.90 2.10
1.42 1.10 0.73
1.36 0.68 0.79
1.10 -0.34 2.05
0.79 -0.16 2.11
0.51 0.15 2.18
0.33 0.00 2.18
0.33 0.28 2.20
0.09 0.27 2.12
-0.09 0.51 2.09
-0.47 0.51 2.20
-0.88 0.56 2.25
-1.18 0.53 2.01
-1.02 0.22 2.12
-0.74 0.28 2.18
-0.55 0.23 2.16
-0.18 0.27 2.10
-0.05 -0.21 2.15
-0.35 -0.19 2.18
-0.58 -0.15 2.19
-0.80 -0.10 2.18
-0.99 -0.06 2.15
-1.20 -0.18 2.19
-1.39 0.18 1.97
-1.61 -0.33 2.02
-1.62 0.14 1.76
-1.47 1.23 1.11
-1.31 0.85 1.75
-1.62 0.41 1.64
-1.50 0.71 1.27
-1.35 1.00 0.45
-1.16 0.83 0.18
-1.25 1.18 0.08
-0.97 1.14 -0.15
-0.74 0.68 -0.06
-0.38 0.74 -0.20
-0.37 0.55 -0.20
-0.57 0.22 -0.16
-0.88 0.45 0.04
-0.87 0.22 0.03
-1.08 0.31 0.19
-1.13 0.63 0.20
-1.42 0.54 0.53
-0.36 0.13 -0.21
-0.11 0.56 -0.20
-0.05 0.20 -0.12
-0.15 0.05 -0.15
-0.09 0.81 -0.21
0.44 0.81 -0.21
0.24 0.49 -0.17
0.16 0.28 -0.14
0.01 0.03 0.00
0.09 0.16 -0.06
0.16 0.12 -0.08
0.30 0.17 -0.14
0.45 0.44 -0.14
0.52 0.23 -0.11
0.73 0.61 -0.04
0.75 0.27 0.04
0.71 0.83 -0.08
1.00 1.08 0.06
0.98 0.68 0.20
0.96 0.35 0.25
1.30 0.92 0.52
1.55 -0.06 0.75
1.32 0.05 0.46
-1.82 0.06 1.24
-1.84 -0.49 1.78
-2.06 -0.75 1.16
-2.00 -0.39 0.74
-1.87 -0.26 0.48
-1.67 0.31 0.94
-1.54 -0.10 0.18
-1.04 -0.08 0.00
-0.61 -0.02 -0.23
-0.37 -0.07 -0.28
-0.18 -0.05 -0.23
-0.01 -0.15 -0.20
0.17 -0.04 -0.14
0.26 -0.10 -0.23
0.58 0.03 -0.16
0.56 -0.25 -0.27
-1.94 -1.01 1.77
-1.79 -0.96 2.00
-1.62 -0.97 2.16
-1.19 -0.63 2.27
-1.18 -1.11 2.38
-0.97 -0.49 2.26
-0.70 -0.45 2.26
-0.76 -0.71 2.36
-0.74 -0.99 2.39
-0.53 -0.66 2.31
-0.18 -0.52 2.24
-0.35 -1.08 2.34
0.10 -0.66 2.27
0.40 -0.85 2.31
0.78 -0.67 2.29
0.11 -1.20 2.36
0.69 -1.04 2.39
0.49 -1.65 2.56
1.06 -0.81 2.21
0.95 -1.40 2.35
1.32 -0.88 2.00
1.27 -1.20 2.08
1.49 -0.98 1.75
1.61 -1.63 1.56
1.44 -0.62 1.74
1.30 -0.52 1.89
1.67 -0.48 1.17
1.60 -0.80 1.52
1.77 -1.01 1.05
1.86 -1.55 0.93
0.80 -1.98 2.48
1.12 -1.63 2.20
1.02 -2.11 2.30
1.63 -2.40 1.43
1.92 -2.45 0.70
1.85 -2.22 0.25
1.83 -1.59 0.43
1.71 -0.94 0.58
1.64 -0.53 0.64
1.43 -0.41 0.37
1.47 -0.95 0.23
1.57 -1.40 0.14
1.72 -1.76 0.16
0.78 -0.08 -0.07
1.09 -0.26 0.14
1.27 -0.63 0.14
1.03 -0.78 -0.03
0.81 -0.58 -0.19
0.69 -0.38 -0.23
0.83 -1.09 -0.16
1.12 -1.02 0.00
1.28 -1.43 -0.04
1.37 -1.69 -0.06
1.41 -1.91 -0.10
0.94 -1.94 -0.20
1.00 -1.63 -0.17
0.92 -1.29 -0.14
0.39 -2.16 -0.36
0.66 -1.68 -0.26
0.56 -1.51 -0.29
0.48 -1.18 -0.33
0.47 -0.62 -0.36
0.35 -0.36 -0.34
0.05 -0.47 -0.37
0.11 -0.90 -0.42
0.19 -1.24 -0.41
0.30 -1.72 -0.38
0.10 -2.22 -0.42
-0.04 -1.79 -0.43
-0.18 -2.18 -0.44
-0.38 -1.80 -0.43
-0.42 -1.27 -0.42
-0.40 -0.88 -0.44
-0.37 -0.46 -0.41
-0.20 -0.23 -0.32
-0.71 -0.41 -0.33
0.50 -2.29 -0.26
0.20 -2.35 -0.35
0.29 -2.48 -0.26
-0.02 -2.68 -0.04
-0.07 -2.40 -0.37
-0.31 -2.42 -0.29
-0.27 -2.31 -0.41
-0.62 -1.94 -0.41
-0.73 -2.09 -0.37
-1.11 -1.85 -0.35
-0.87 -1.65 -0.36
-1.16 -1.22 -0.26
-1.48 -1.73 -0.32
-1.44 -1.18 -0.19
-1.81 -0.86 0.10
-1.93 -1.55 -0.04
-2.18 -1.60 0.23
-2.03 -0.85 0.34
-2.22 -1.46 0.48
-2.12 -0.87 0.59
-1.69 -0.43 0.14
-1.47 -0.55 -0.04
-1.32 -1.01 -0.19
-0.94 -0.75 -0.31
-2.25 -1.65 0.44
-2.26 -2.27 0.14
-1.95 -1.92 -0.13
-1.41 -2.26 -0.56
-1.92 -2.54 -0.32
-2.20 -2.94 0.04
-1.00 -2.22 -0.56
-0.34 -2.79 -0.54
-0.01 -3.26 -0.32
-0.24 -3.39 -0.68
-0.73 -3.10 -0.85
-1.36 -2.77 -0.74
-1.85 -3.27 -0.47
-2.13 -3.42 -0.02
0.27 -2.85 -0.52
0.26 -3.36 -0.74
0.51 -2.66 -0.56
0.54 -3.14 -0.82
0.97 -2.29 -0.42
1.42 -2.52 -0.46
0.92 -2.89 -0.78
1.73 -2.70 -0.29
1.37 -3.17 -0.86
1.97 -3.72 -0.51
1.37 -3.52 -1.03
0.96 -3.60 -1.10
0.54 -3.48 -0.95
0.56 -3.87 -1.09
0.27 -3.83 -0.89
-0.03 -3.75 -0.58
-0.16 -3.81 -0.77
-0.57 -3.89 -1.01
-1.22 -4.00 -1.01
-1.31 -3.14 -0.84
-1.70 -4.12 -0.68
-1.99 -4.23 -0.22
-2.14 -3.54 0.55
-2.00 -4.37 0.42
-1.84 -4.41 0.90
-1.96 -3.65 1.05
-2.23 -3.02 0.61
-2.32 -2.56 0.43
-2.30 -2.27 0.25
-2.31 -2.27 0.78
-2.09 -3.11 1.14
-2.16 -2.71 1.21
-2.20 -2.27 1.30
-2.14 -1.78 1.43
-2.23 -1.67 0.97
-2.14 -1.23 1.06
-1.49 -4.47 1.22
-1.64 -3.73 1.36
-1.94 -3.19 1.35
-2.00 -2.75 1.54
-2.11 -2.27 1.52
-2.03 -1.92 1.65
-1.91 -1.69 1.84
-1.03 -4.51 1.38
-1.35 -3.80 1.49
-1.46 -3.39 1.61
-1.71 -3.31 1.51
-1.69 -2.88 1.98
-1.87 -2.68 1.87
-1.89 -2.17 1.90
-1.68 -1.83 2.22
-1.81 -1.37 2.02
-1.57 -1.52 2.31
-1.17 -1.54 2.47
-1.56 -1.71 2.35
-1.69 -2.15 2.25
-1.54 -2.11 2.40
-1.16 -2.05 2.57
-1.75 -2.40 2.16
-1.62 -2.59 2.26
-1.57 -2.37 2.37
-1.57 -3.17 1.83
-0.30 -3.85 1.15
-0.36 -4.48 1.22
-0.07 -4.18 0.90
-0.63 -3.88 1.41
-0.72 -4.54 1.37
-0.97 -3.86 1.52
-0.09 -3.80 0.88
-0.51 -3.27 1.41
-0.20 -3.29 1.08
-0.78 -3.35 1.59
-1.09 -3.60 1.61
-1.08 -3.38 1.63
-0.33 -3.10 1.48
-0.35 -3.00 1.81
-0.60 -3.10 1.95
-0.75 -3.15 2.07
-1.11 -3.31 1.82
-1.26 -3.17 2.03
-1.40 -3.19 1.92
-0.57 -2.96 2.14
-0.37 -2.79 2.09
-0.56 -2.85 2.24
-0.37 -2.50 2.22
-0.57 -2.57 2.40
-0.57 -2.06 2.43
-0.35 -2.12 2.23
-0.38 -1.74 2.22
-0.98 -2.27 2.56
-0.90 -2.04 2.59
-0.72 -2.56 2.46
-0.94 -2.91 2.36
-0.85 -3.07 2.20
-1.29 -2.92 2.27
-1.51 -2.71 2.31
-1.16 -2.43 2.52
-1.05 -2.69 2.46
-0.86 -1.51 2.47
-0.66 -1.51 2.41
-0.57 -1.25 2.35
-0.86 -1.34 2.43
-0.38 -1.34 2.29
-0.16 -1.50 2.31
0.02 -1.88 2.54
0.19 -2.28 2.64
-0.01 -2.37 2.56
0.53 -2.15 2.62
-0.18 -2.02 2.42
-0.21 -2.45 2.42
-0.19 -2.88 2.27
-0.10 -3.23 2.01
-0.19 -3.16 1.93
-0.13 -3.27 1.63
0.00 -3.39 1.24
0.11 -3.86 1.13
0.15 -3.51 1.39
0.01 -3.39 1.69
0.24 -3.44 1.82
0.08 -3.23 2.15
0.12 -3.33 2.02
-0.03 -2.59 2.51
-0.01 -2.90 2.39
0.26 -2.56 2.61
0.37 -2.74 2.56
0.63 -2.46 2.56
0.92 -2.88 2.27
0.45 -2.92 2.46
0.55 -3.16 2.28
0.61 -3.39 2.00
0.34 -3.60 1.51
0.67 -3.54 1.76
0.79 -3.42 1.88
0.76 -3.24 2.11
0.98 -3.29 1.89
1.20 -2.93 1.92
0.01 -4.09 0.82
0.15 -4.02 1.08
0.41 -4.42 1.15
0.36 -3.91 1.34
0.69 -3.64 1.64
0.81 -3.91 1.46
0.89 -4.53 1.23
1.50 -4.53 1.06
1.44 -3.79 1.32
1.05 -3.61 1.60
1.05 -3.40 1.76
1.27 -3.56 1.51
1.64 -3.33 1.20
1.46 -2.97 1.54
1.62 -2.98 1.30
1.92 -2.88 0.60
1.70 -3.64 1.08
1.75 -4.43 0.85
2.08 -4.09 0.08
1.97 -3.26 0.44
1.89 -2.90 -0.06
3 0 1 2
3 1 0 3
3 1 3 4
3 4 3 5
3 5 6 4
3 6 5 7
3 7 8 6
3 9 8 7
3 10 8 9
3 11 8 10
3 11 10 12
3 12 13 11
3 12 14 13
3 15 14 12
3 16 11 13
3 16 8 11
3 17 8 16
3 18 8 17
3 6 8 18
3 18 4 6
3 19 4 18
3 19 1 4
3 1 19 20
3 1 20 2
3 2 20 21
3 0 2 22
3 2 23 22
3 21 23 2
3 23 21 24
3 23 25 22
3 25 23 24
3 25 24 26
3 26 27 25
3 22 25 28
3 28 29 22
3 25 27 28
3 28 27 14
3 28 15 29
3 28 14 15
3 14 27 30
3 30 31 14
3 13 14 31
3 13 31 32
3 30 27 33
3 33 34 30
3 31 30 34
3 32 31 34
3 33 35 34
3 35 36 34
3 34 36 32
3 32 16 13
3 36 35 37
3 32 36 37
3 32 37 38
3 39 32 38
3 39 16 32
3 39 17 16
3 39 40 17
3 41 12 10
3 41 15 12
3 41 29 15
3 42 10 9
3 41 10 42
3 41 42 43
3 9 44 42
3 44 9 7
3 44 7 45
3 45 7 5
3 45 5 3
3 3 43 45
3 46 43 3
3 47 43 46
3 41 43 47
3 45 43 44
3 44 43 42
3 41 47 22
3 41 22 29
3 22 47 46
3 22 46 0
3 46 3 0
3 39 48 40
3 17 40 18
3 18 40 49
3 50 40 48
3 50 48 51
3 50 51 52
3 50 52 49
3 50 49 40
3 53 49 52
3 49 53 54
3 54 18 49
3 55 18 54
3 19 18 55
3 56 19 55
3 57 54 53
3 57 58 54
3 57 59 58
3 60 58 59
3 60 61 58
3 62 58 61
3 62 56 58
3 58 56 55
3 55 54 58
3 62 61 63
3 62 63 64
3 62 64 65
3 62 65 56
3 19 56 65
3 65 20 19
3 20 65 64
3 20 64 66
3 66 21 20
3 21 66 67
3 67 68 21
3 69 68 67
3 24 21 68
3 70 68 69
3 70 71 68
3 68 71 24
3 71 26 24
3 72 26 71
3 72 71 70
3 72 73 26
3 26 73 74
3 74 27 26
3 74 73 75
3 75 76 74
3 33 27 74
3 74 76 33
3 33 76 77
3 77 35 33
3 35 77 78
3 78 79 35
3 79 37 35
3 37 79 80
3 80 81 37
3 38 37 81
3 81 82 38
3 39 38 82
3 39 82 83
3 39 83 48
3 84 48 83
3 84 51 48
3 85 81 86
3 81 85 82
3 85 83 82
3 83 85 87
3 87 88 83
3 84 83 88
3 84 88 89
3 84 89 51
3 89 90 51
3 52 51 90
3 91 92 89
3 91 89 93
3 91 93 94
3 91 94 95
3 91 95 96
3 91 96 92
3 96 95 97
3 98 96 97
3 97 99 98
3 100 96 98
3 92 96 100
3 100 90 92
3 92 90 89
3 88 93 89
3 99 97 101
3 102 101 97
3 97 95 102
3 102 95 94
3 94 103 102
3 101 104 99
3 104 101 102
3 105 104 102
3 105 102 103
3 105 103 106
3 106 103 107
3 103 108 107
3 94 108 103
3 93 108 94
3 109 108 93
3 93 88 109
3 109 88 87
3 110 109 87
3 86 87 85
3 81 80 86
3 86 80 111
3 111 110 86
3 87 86 110
3 111 80 79
3 79 112 111
3 79 113 112
3 113 79 78
3 114 108 109
3 109 110 114
3 114 110 115
3 116 115 110
3 110 111 116
3 115 116 117
3 117 114 115
3 114 117 107
3 107 108 114
3 111 118 116
3 119 118 111
3 111 112 119
3 119 112 120
3 120 112 113
3 120 113 121
3 105 122 104
3 105 106 122
3 122 106 123
3 123 124 122
3 123 106 125
3 107 125 106
3 107 117 125
3 117 126 125
3 117 116 126
3 125 126 123
3 126 127 123
3 127 128 123
3 123 128 124
3 124 128 129
3 127 129 128
3 129 127 130
3 130 127 131
3 116 131 127
3 127 126 116
3 116 118 131
3 131 118 119
3 132 131 119
3 132 120 133
3 132 119 120
3 120 134 133
3 120 135 134
3 121 135 120
3 136 121 113
3 113 78 136
3 136 78 77
3 77 137 136
3 137 77 138
3 76 138 77
3 137 138 139
3 139 136 137
3 139 140 136
3 136 140 121
3 121 140 135
3 141 135 140
3 142 141 140
3 140 139 142
3 132 133 130
3 132 130 131
3 143 129 130
3 143 124 129
3 143 130 133
3 144 143 133
3 144 133 134
3 144 134 135
3 144 135 145
3 146 145 135
3 146 135 141
3 141 142 146
3 122 124 147
3 147 124 143
3 144 147 143
3 144 148 147
3 144 149 148
3 144 145 149
3 149 145 146
3 146 150 149
3 151 138 76
3 152 138 151
3 139 138 152
3 152 153 139
3 142 139 153
3 146 142 153
3 153 154 146
3 154 150 146
3 154 155 150
3 156 155 154
3 154 157 156
3 154 158 157
3 153 158 154
3 158 153 151
3 152 151 153
3 159 158 151
3 159 151 76
3 159 76 75
3 159 75 160
3 159 161 158
3 159 160 161
3 162 158 161
3 162 157 158
3 157 162 156
3 163 156 162
3 162 164 163
3 163 164 165
3 165 164 166
3 166 167 165
3 166 168 167
3 168 166 169
3 170 169 166
3 170 166 164
3 171 170 164
3 164 162 171
3 161 171 162
3 172 171 161
3 172 161 160
3 172 160 75
3 172 75 73
3 172 73 173
3 172 173 174
3 172 174 171
3 171 174 170
3 169 170 175
3 175 170 176
3 174 176 170
3 173 176 174
3 176 173 177
3 73 177 173
3 177 73 72
3 168 169 178
3 167 168 179
3 180 179 168
3 180 168 181
3 168 178 181
3 182 181 178
3 169 183 178
3 175 183 169
3 184 183 175
3 183 184 185
3 176 184 175
3 176 177 184
3 184 177 186
3 186 177 72
3 72 187 186
3 187 72 188
3 188 72 70
3 189 188 70
3 188 189 187
3 190 187 189
3 187 190 191
3 191 186 187
3 192 186 191
3 186 192 185
3 185 184 186
3 70 69 189
3 189 69 193
3 193 190 189
3 194 190 193
3 195 190 194
3 195 191 190
3 196 191 195
3 192 191 196
3 192 196 197
3 192 197 185
3 198 185 197
3 183 185 198
3 199 183 198
3 178 183 199
3 200 182 178
3 178 201 200
3 178 199 201
3 201 199 202
3 202 199 198
3 198 203 202
3 197 203 198
3 203 197 204
3 204 197 196
3 196 205 204
3 196 195 205
3 205 195 206
3 195 194 206
3 206 194 207
3 208 207 194
3 208 194 193
3 193 69 67
3 209 205 206
3 209 204 205
3 204 209 203
3 203 209 210
3 210 202 203
3 201 202 210
3 210 200 201
3 211 200 210
3 182 200 211
3 182 211 212
3 212 211 213
3 210 213 211
3 214 213 210
3 215 214 210
3 216 215 210
3 216 210 209
3 216 209 217
3 206 217 209
3 207 217 206
3 213 214 212
3 218 212 214
3 212 219 182
3 218 219 212
3 218 220 219
3 218 221 220
3 218 214 221
3 214 215 221
3 221 215 222
3 222 215 223
3 216 223 215
3 216 224 223
3 216 217 224
3 224 217 207
3 225 224 207
3 225 223 224
3 223 225 222
3 222 225 226
3 227 222 226
3 221 227 220
3 228 226 225
3 225 229 228
3 207 229 225
3 227 221 222
3 230 227 226
3 230 226 228
3 230 228 231
3 232 231 228
3 232 228 229
3 232 229 233
3 233 229 207
3 67 66 193
3 193 66 208
3 66 233 208
3 207 208 233
3 66 64 233
3 232 233 64
3 232 64 234
3 64 63 234
3 235 234 63
3 232 234 235
3 232 235 231
3 63 61 235
3 61 236 235
3 237 235 236
3 235 237 231
3 60 236 61
3 60 238 236
3 237 236 238
3 230 237 238
3 230 231 237
3 230 220 227
3 230 239 220
3 230 240 239
3 230 241 240
3 230 238 241
3 241 238 242
3 60 242 238
3 60 243 242
3 60 59 243
3 244 243 59
3 244 59 245
3 246 220 239
3 246 219 220
3 247 182 219
3 247 219 248
3 246 248 219
3 246 249 248
3 246 250 249
3 246 239 250
3 250 251 249
3 252 251 250
3 250 253 252
3 239 253 250
3 253 239 240
3 240 254 253
3 254 240 241
3 241 255 254
3 241 256 255
3 242 256 241
3 257 256 242
3 257 242 243
3 257 243 258
3 244 258 243
3 244 259 258
3 244 245 259
3 245 260 259
3 245 261 260
3 262 260 261
3 262 261 263
3 245 264 261
3 57 264 245
3 57 245 59
3 265 263 261
3 263 265 266
3 262 263 266
3 262 266 267
3 268 267 266
3 269 267 268
3 270 267 269
3 269 271 270
3 249 270 271
3 251 270 249
3 272 270 251
3 272 267 270
3 272 273 267
3 262 267 273
3 262 273 260
3 273 258 260
3 260 258 259
3 258 273 274
3 257 258 274
3 272 274 273
3 272 251 274
3 275 274 251
3 251 252 275
3 276 275 252
3 253 276 252
3 254 276 253
3 276 254 255
3 255 256 276
3 257 276 256
3 257 274 276
3 274 275 276
3 57 277 264
3 278 264 277
3 261 264 278
3 279 261 278
3 261 279 265
3 265 279 280
3 265 280 281
3 281 266 265
3 268 266 281
3 282 269 268
3 271 248 249
3 271 283 248
3 247 248 283
3 247 284 182
3 284 181 182
3 281 280 285
3 286 285 280
3 287 286 280
3 287 280 279
3 287 279 278
3 287 278 288
3 277 288 278
3 289 288 277
3 289 277 52
3 52 277 53
3 57 53 277
3 52 290 291
3 289 52 291
3 289 291 292
3 289 292 288
3 287 288 292
3 287 292 293
3 287 293 294
3 287 294 286
3 295 286 294
3 296 286 295
3 296 285 286
3 297 294 298
3 294 297 295
3 298 299 297
3 294 300 298
3 293 300 294
3 292 300 293
3 300 292 301
3 301 292 291
3 301 291 290
3 290 302 301
3 303 301 302
3 303 300 301
3 303 298 300
3 303 299 298
3 304 52 90
3 304 290 52
3 304 302 290
3 304 90 100
3 304 100 305
3 304 305 306
3 304 306 302
3 303 302 306
3 303 306 307
3 303 307 299
3 297 299 307
3 285 308 281
3 309 308 285
3 309 285 310
3 296 310 285
3 296 311 310
3 296 295 311
3 312 310 311
3 312 311 313
3 314 313 311
3 314 311 295
3 314 295 297
3 314 297 315
3 307 315 297
3 316 315 307
3 316 307 306
3 316 306 305
3 316 305 100
3 316 317 315
3 314 315 317
3 314 99 313
3 314 317 99
3 98 99 317
3 98 317 100
3 316 100 317
3 99 104 318
3 318 313 99
3 312 313 318
3 309 310 319
3 312 319 310
3 312 320 319
3 312 318 320
3 321 320 318
3 322 321 318
3 318 104 322
3 322 104 323
3 323 104 122
3 324 323 122
3 122 147 324
3 324 147 325
3 325 326 324
3 324 326 327
3 324 327 323
3 323 327 328
3 328 322 323
3 322 328 321
3 329 281 308
3 329 282 281
3 268 281 282
3 329 330 282
3 331 282 330
3 331 269 282
3 331 332 269
3 332 271 269
3 271 332 283
3 328 327 333
3 327 326 333
3 333 326 334
3 333 334 335
3 335 334 336
3 334 337 336
3 337 334 338
3 326 338 334
3 339 338 326
3 339 326 325
3 339 325 147
3 339 147 148
3 339 148 149
3 339 149 340
3 339 340 338
3 340 341 338
3 341 337 338
3 342 336 337
3 336 342 343
3 343 344 336
3 336 344 345
3 345 346 336
3 336 346 335
3 150 347 149
3 149 347 340
3 340 347 348
3 348 341 340
3 349 150 155
3 349 347 150
3 349 348 347
3 348 349 350
3 350 349 351
3 351 349 352
3 156 352 349
3 349 155 156
3 163 352 156
3 163 353 352
3 352 353 351
3 351 353 354
3 354 353 355
3 355 353 356
3 356 353 163
3 165 356 163
3 167 356 165
3 167 357 356
3 356 357 355
3 358 355 357
3 180 358 357
3 180 357 179
3 179 357 167
3 333 359 328
3 335 359 333
3 359 335 360
3 344 343 361
3 362 361 343
3 343 342 362
3 362 342 363
3 337 363 342
3 364 362 363
3 364 363 365
3 365 363 337
3 365 337 341
3 366 365 341
3 364 365 366
3 366 341 348
3 348 350 366
3 366 350 367
3 367 350 351
3 367 351 368
3 351 354 368
3 355 368 354
3 369 368 355
3 369 355 358
3 370 369 358
3 371 369 370
3 369 371 372
3 372 368 369
3 368 372 373
3 373 374 368
3 368 374 367
3 367 374 366
3 366 374 375
3 375 364 366
3 374 376 375
3 373 376 374
3 377 376 373
3 378 377 373
3 373 372 378
3 378 372 379
3 379 372 371
3 371 380 379
3 381 380 371
3 382 380 381
3 370 381 371
3 370 383 381
3 382 381 383
3 180 181 384
3 180 384 385
3 180 385 358
3 370 358 385
3 370 385 383
3 385 386 383
3 387 385 384
3 386 385 387
3 247 283 284
3 388 181 284
3 388 384 181
3 388 284 389
3 390 389 284
3 389 390 391
3 391 390 283
3 283 332 391
3 331 391 332
3 331 392 391
3 391 392 389
3 331 330 392
3 330 393 392
3 394 392 393
3 395 392 394
3 396 392 395
3 396 395 397
3 396 397 398
3 396 398 399
3 396 399 389
3 396 389 392
3 388 389 399
3 388 399 400
3 399 398 400
3 388 400 387
3 388 387 384
3 394 401 395
3 402 401 394
3 402 403 401
3 404 401 403
3 402 394 393
3 402 393 405
3 330 405 393
3 329 405 330
3 329 406 405
3 329 308 406
3 402 405 406
3 402 406 407
3 402 407 408
3 402 408 403
3 409 410 411
3 409 403 410
3 410 403 408
3 408 411 410
3 412 411 408
3 412 408 413
3 412 413 414
3 407 413 408
3 413 407 406
3 409 404 403
3 415 416 414
3 415 414 413
3 415 413 406
3 415 406 417
3 308 417 406
3 309 417 308
3 309 319 418
3 309 418 417
3 415 417 418
3 415 418 419
3 415 419 420
3 415 420 416
3 420 419 360
3 360 419 421
3 421 419 418
3 418 320 421
3 319 320 418
3 421 320 321
3 360 335 346
3 346 422 360
3 423 360 422
3 423 420 360
3 360 421 359
3 321 359 421
3 328 359 321
3 284 283 390
3 386 387 424
3 424 383 386
3 383 424 425
3 426 425 424
3 427 426 424
3 424 428 427
3 429 428 424
3 429 424 387
3 429 387 400
3 429 400 428
3 430 428 400
3 400 398 430
3 430 398 431
3 431 398 397
3 432 431 397
3 432 397 395
3 432 395 401
3 432 401 433
3 434 433 401
3 434 401 404
3 434 404 435
3 409 435 404
3 409 436 435
3 409 411 436
3 412 436 411
3 437 435 436
3 412 437 436
3 412 438 437
3 412 414 438
3 439 437 438
3 440 425 426
3 383 425 382
3 382 425 441
3 440 441 425
3 441 442 382
3 443 382 442
3 443 380 382
3 442 444 443
3 379 380 443
3 445 379 443
3 445 378 379
3 445 446 378
3 445 443 447
3 443 444 448
3 447 443 448
3 448 449 447
3 449 446 447
3 445 447 446
3 446 377 378
3 377 446 449
3 449 376 377
3 450 376 449
3 450 449 451
3 448 451 449
3 451 452 450
3 375 376 450
3 450 364 375
3 452 364 450
3 453 452 451
3 364 452 453
3 453 362 364
3 454 362 453
3 451 455 453
3 453 455 456
3 453 456 454
3 456 455 457
3 361 362 454
3 456 458 454
3 458 456 459
3 454 458 361
3 361 458 460
3 458 461 460
3 459 461 458
3 462 460 461
3 463 462 461
3 462 464 460
3 460 464 465
3 460 465 361
3 361 465 344
3 344 465 464
3 464 345 344
3 464 466 345
3 345 466 346
3 466 464 467
3 467 464 462
3 467 462 468
3 467 468 466
3 468 462 463
3 463 469 468
3 456 457 459
3 457 470 459
3 471 459 470
3 459 471 461
3 472 471 470
3 471 472 473
3 473 463 471
3 461 471 463
3 474 463 473
3 469 463 474
3 474 475 469
3 475 476 469
3 469 476 477
3 477 468 469
3 466 468 477
3 477 478 466
3 466 478 422
3 422 346 466
3 423 422 479
3 479 422 478
3 479 478 480
3 480 478 477
3 481 480 477
3 481 477 476
3 481 476 482
3 482 476 475
3 439 438 483
3 438 416 483
3 483 416 484
3 484 416 420
3 423 484 420
3 423 479 484
3 485 484 479
3 485 486 484
3 487 484 486
3 487 488 484
3 484 488 483
3 439 483 488
3 487 486 489
3 490 489 486
3 485 490 486
3 485 480 490
3 485 479 480
3 481 490 480
3 481 491 490
3 481 492 491
3 481 482 492
3 493 492 482
3 482 475 493
3 494 492 493
3 495 492 494
3 495 491 492
3 495 496 491
3 496 490 491
3 489 490 496
3 414 416 438
3 494 497 498
3 495 494 498
3 495 498 496
3 499 496 498
3 496 499 489
3 500 489 499
3 500 501 489
3 487 489 501
3 487 501 488
3 439 488 501
3 439 501 502
3 439 502 437
3 503 437 502
3 503 502 501
3 503 501 504
3 500 504 501
3 500 505 504
3 500 499 505
3 506 505 499
3 506 499 498
3 506 498 497
3 506 497 507
3 506 507 508
3 508 507 509
3 509 510 508
3 511 508 510
3 511 505 508
3 506 508 505
3 511 504 505
3 511 512 504
3 503 504 512
3 503 512 513
3 503 513 514
3 503 514 435
3 503 435 437
3 434 435 514
3 434 514 433
3 513 433 514
3 432 513 515
3 432 433 513
3 497 494 516
3 516 517 497
3 518 517 516
3 517 518 519
3 520 517 519
3 520 519 521
3 520 507 517
3 497 517 507
3 520 509 507
3 520 522 509
3 520 521 522
3 523 522 521
3 521 524 523
3 523 524 525
3 523 525 526
3 527 526 525
3 528 527 525
3 528 529 527
3 528 530 529
3 528 531 530
3 531 532 530
3 530 532 533
3 534 533 532
3 535 533 534
3 427 533 535
3 427 428 533
3 530 533 428
3 536 428 430
3 428 536 530
3 537 536 430
3 537 530 536
3 537 538 530
3 529 530 538
3 538 527 529
3 523 509 522
3 523 510 509
3 523 526 510
3 511 510 526
3 511 526 527
3 511 527 539
3 511 539 512
3 539 513 512
3 513 539 515
3 432 515 431
3 431 515 539
3 527 538 539
3 537 539 538
3 537 431 539
3 537 430 431
3 540 534 532
3 540 532 541
3 532 542 541
3 542 532 531
3 528 542 531
3 528 543 542
3 542 543 544
3 542 544 541
3 544 545 541
3 528 546 543
3 528 525 546
3 525 524 546
3 547 546 524
3 547 524 521
3 547 521 519
3 547 519 548
3 547 548 549
3 547 549 550
3 547 550 546
3 551 546 550
3 551 543 546
3 551 544 543
3 551 552 544
3 545 544 552
3 553 545 552
3 554 548 519
3 554 519 518
3 554 555 548
3 554 556 557
3 554 557 555
3 554 518 556
3 518 516 556
3 558 556 516
3 558 516 494
3 558 494 493
3 558 493 559
3 558 559 560
3 558 560 556
3 556 560 557
3 493 475 561
3 561 559 493
3 562 559 561
3 562 561 563
3 562 563 564
3 562 560 559
3 562 565 560
3 562 564 565
3 560 565 557
3 566 557 565
3 566 565 567
3 566 567 568
3 566 568 555
3 566 555 557
3 555 568 569
3 569 548 555
3 569 549 548
3 549 569 570
3 570 571 549
3 549 571 550
3 550 571 572
3 572 573 550
3 551 550 573
3 551 573 552
3 573 572 552
3 552 572 574
3 574 575 552
3 552 575 553
3 576 575 577
3 576 553 575
3 576 577 578
3 576 578 579
3 576 545 553
3 576 580 545
3 581 545 580
3 545 581 582
3 582 541 545
3 541 582 540
3 583 540 582
3 583 582 581
3 583 581 580
3 576 579 580
3 584 580 579
3 585 580 584
3 583 580 585
3 583 585 586
3 583 586 587
3 583 587 588
3 583 588 540
3 540 588 534
3 534 588 589
3 534 589 535
3 589 588 587
3 440 589 587
3 578 590 579
3 579 590 591
3 591 592 579
3 579 592 584
3 584 592 585
3 592 593 585
3 594 585 593
3 594 586 585
3 595 586 594
3 595 587 586
3 587 595 596
3 440 587 596
3 590 597 598
3 598 591 590
3 591 598 599
3 599 600 591
3 591 600 592
3 592 600 601
3 601 593 592
3 602 593 601
3 603 593 602
3 603 594 593
3 603 595 594
3 603 596 595
3 603 604 596
3 604 605 596
3 440 596 605
3 535 426 427
3 426 535 589
3 440 426 589
3 440 605 441
3 606 442 605
3 605 442 441
3 604 606 605
3 606 444 442
3 606 607 444
3 607 606 608
3 608 606 604
3 603 609 604
3 610 604 609
3 610 608 604
3 611 608 610
3 608 611 607
3 603 612 609
3 603 602 612
3 613 612 602
3 614 612 613
3 612 614 609
3 602 601 613
3 615 601 600
3 599 615 600
3 616 617 618
3 619 617 616
3 619 620 617
3 619 621 620
3 597 620 621
3 621 598 597
3 618 622 616
3 622 623 616
3 624 623 622
3 616 623 619
3 619 623 625
3 625 626 619
3 619 626 621
3 626 598 621
3 599 598 626
3 626 627 599
3 626 625 627
3 623 624 628
3 628 629 623
3 629 630 623
3 630 625 623
3 630 631 625
3 625 631 632
3 632 627 625
3 627 632 599
3 633 599 632
3 633 634 599
3 634 615 599
3 633 632 631
3 635 630 629
3 636 635 629
3 636 637 635
3 637 636 638
3 638 639 637
3 640 639 638
3 638 641 640
3 640 641 642
3 643 640 644
3 645 640 643
3 645 639 640
3 637 639 645
3 637 645 646
3 646 647 637
3 637 647 635
3 635 647 631
3 631 630 635
3 633 631 647
3 633 647 646
3 633 646 648
3 633 648 634
3 634 648 615
3 615 648 601
3 601 649 613
3 648 649 601
3 649 648 650
3 651 650 648
3 651 648 646
3 651 646 645
3 651 645 650
3 643 650 645
3 644 611 643
3 650 643 611
3 610 650 611
3 650 610 614
3 614 649 650
3 613 649 614
3 609 614 610
3 607 611 644
3 607 644 652
3 653 652 644
3 653 644 640
3 653 640 642
3 653 642 654
3 653 654 448
3 653 448 655
3 653 655 652
3 655 607 652
3 444 607 655
3 448 444 655
3 451 448 654
3 656 451 654
3 654 642 656
3 656 642 657
3 451 656 657
3 657 455 451
3 657 658 455
3 457 455 658
3 658 659 457
3 660 659 658
3 659 661 457
3 457 661 470
3 658 662 660
3 662 663 660
3 641 663 662
3 641 662 642
3 642 662 657
3 658 657 662
3 638 663 641
3 663 638 664
3 664 638 636
3 664 636 665
3 636 666 665
3 666 636 629
3 666 629 667
3 666 667 665
3 667 629 628
3 667 628 624
3 667 624 668
3 624 622 668
3 668 622 669
3 670 668 669
3 667 668 670
3 671 667 670
3 665 667 671
3 665 671 672
3 673 665 674
3 672 674 665
3 665 673 664
3 664 675 663
3 660 663 675
3 676 675 664
3 664 673 676
3 675 659 660
3 675 677 659
3 677 675 676
3 676 678 677
3 661 659 677
3 677 679 661
3 470 661 679
3 470 679 472
3 679 680 472
3 681 680 679
3 679 678 681
3 678 679 677
3 676 681 678
3 673 681 676
3 682 681 673
3 674 683 673
3 683 674 672
3 673 683 682
3 672 671 684
3 671 670 684
3 684 683 672
3 685 683 684
3 683 685 686
3 686 687 683
3 682 683 687
3 687 680 682
3 680 687 688
3 687 686 688
3 682 680 681
3 689 680 688
3 472 680 689
3 473 472 689
3 622 618 690
3 622 690 669
3 691 690 692
3 669 690 691
3 693 669 691
3 692 693 691
3 669 693 670
3 693 684 670
3 684 694 685
3 694 684 695
3 695 684 693
3 695 693 692
3 692 696 695
3 695 696 697
3 697 698 695
3 695 698 699
3 699 694 695
3 700 686 694
3 694 686 685
3 688 686 700
3 694 699 700
3 701 700 699
3 701 699 698
3 702 701 698
3 702 703 701
3 703 700 701
3 700 703 689
3 689 688 700
3 689 703 473
3 473 703 704
3 473 704 705
3 473 705 474
3 702 705 704
3 704 703 702
3 697 706 698
3 707 706 697
3 708 706 707
3 709 706 708
3 706 709 705
3 705 702 706
3 698 706 702
3 563 709 708
3 710 709 563
3 475 709 710
3 709 475 705
3 705 475 474
3 710 561 475
3 563 561 710
3 575 574 577
3 578 577 574
3 574 572 578
3 578 572 590
3 590 572 597
3 572 571 597
3 597 571 620
3 620 571 617
3 571 570 617
3 570 569 617
3 690 617 569
3 568 690 569
3 692 690 568
3 568 567 692
3 567 565 692
3 696 692 565
3 564 696 565
3 564 697 696
3 697 564 563
3 563 708 697
3 707 697 708
